<?xml version="1.0" standalone="no"?>
<!DOCTYPE svg PUBLIC "-//W3C//DTD SVG 20010904//EN"
 "http://www.w3.org/TR/2001/REC-SVG-20010904/DTD/svg10.dtd">
<svg version="1.0" xmlns="http://www.w3.org/2000/svg"
 width="286.000000pt" height="408.000000pt" viewBox="0 0 286.000000 408.000000"
 preserveAspectRatio="xMidYMid meet">

<g transform="translate(0.000000,408.000000) scale(0.100000,-0.100000)"
fill="#000000" stroke="none">
<path d="M1195 3905 c-582 -93 -1035 -513 -1125 -1045 -17 -95 -17 -296 0
-386 45 -254 159 -465 357 -662 l114 -113 9 -77 c6 -42 21 -140 35 -216 37
-205 32 -282 -21 -346 -42 -50 -87 -55 -210 -25 -131 31 -165 32 -199 2 -34
-29 -44 -91 -21 -134 63 -123 284 -209 470 -182 88 12 164 49 214 103 51 55
74 101 97 194 11 39 22 72 25 72 4 0 11 -39 17 -88 20 -153 -3 -234 -102 -360
-90 -115 -103 -157 -63 -207 26 -33 91 -64 134 -65 99 0 228 99 289 224 52
107 74 208 84 388 8 154 9 159 45 233 20 41 41 75 46 75 5 0 14 -24 21 -54 14
-66 8 -164 -22 -351 -31 -191 -34 -531 -6 -613 33 -92 90 -142 164 -142 58 0
104 30 133 86 22 42 25 64 29 168 2 65 -5 220 -14 344 -19 247 -16 333 16 429
31 93 43 81 33 -29 -25 -260 21 -424 155 -559 93 -92 186 -121 274 -84 45 18
67 50 67 93 0 40 -8 56 -72 144 -86 118 -115 211 -97 317 5 33 15 73 21 88
l12 28 3 -25 c19 -121 108 -242 219 -298 116 -59 292 -41 341 35 45 68 10 126
-117 194 -89 48 -135 90 -151 138 -14 40 -7 157 17 312 8 57 17 151 19 207 3
103 3 104 37 140 328 347 414 875 213 1300 -68 143 -128 226 -254 353 -217
216 -450 337 -756 389 -136 23 -351 25 -480 5z m550 -1705 c118 -17 173 -37
221 -82 98 -90 84 -252 -28 -321 -67 -42 -135 -56 -331 -69 -203 -13 -497 0
-602 27 -121 31 -185 106 -185 214 0 132 87 206 272 230 91 12 570 12 653 1z"/>
<path d="M1124 2100 c-33 -13 -62 -57 -70 -106 -5 -35 -2 -53 17 -91 27 -54
62 -73 106 -57 96 33 97 220 1 253 -17 6 -31 11 -32 10 -1 0 -11 -4 -22 -9z"/>
<path d="M1661 2094 c-38 -16 -61 -60 -61 -118 0 -83 38 -136 97 -136 91 0
131 146 63 232 -24 31 -59 39 -99 22z"/>
</g>
</svg>
